<?xml version="1.0" encoding="utf-8"?>
<!-- Generator: Adobe Illustrator 27.9.0, SVG Export Plug-In . SVG Version: 6.00 Build 0)  -->
<svg version="1.1" id="Layer_2_00000092457873512430774470000010814631435151765898_"
	 xmlns="http://www.w3.org/2000/svg" xmlns:xlink="http://www.w3.org/1999/xlink" x="0px" y="0px" viewBox="0 0 577.4 294.6"
	 style="enable-background:new 0 0 577.4 294.6;" xml:space="preserve">
<style type="text/css">
	.st0{fill:#FFFFFF;}
	.st1{fill:none;}
	.st2{fill:none;stroke:#FFFFFF;stroke-width:7;stroke-miterlimit:10;}
	.st3{enable-background:new    ;}
</style>
<path class="st0" d="M363,116.4L288,0l-75,116.4H0v150.2h187.5c1.4-1,3-2.1,4.7-3.3c3.1-2.1,6.8-4.8,10.7-7.7H11V127.4h208l69-107.1
	l69,107.1h208v128.1H281.9c-2.9,3.9-5.8,7.6-8.7,11H576V116.4H363z"/>
<path class="st0" d="M133.7,184.3h-1.3c-4.2-0.1-8.4,0.6-12.3,2.1c-3.3,1.2-6.2,3.5-8.2,6.4v41.7H96.7v-62.2h12.6l1.4,8.7h0.3
	c1.7-3.1,4.3-5.7,7.4-7.5c3.5-1.9,7.4-2.8,11.3-2.7c1.3,0,2.7,0.1,4,0.2L133.7,184.3z"/>
<path class="st0" d="M173.4,227.8h-0.3c-1,1-2,1.9-3.1,2.8c-1.3,1-2.7,1.9-4.1,2.7c-1.6,0.9-3.4,1.5-5.1,2c-2,0.5-4,0.8-6.1,0.8
	c-2.8,0-5.6-0.4-8.3-1.4c-2.5-0.9-4.7-2.2-6.6-4c-1.9-1.8-3.3-3.9-4.3-6.3c-1.1-2.6-1.6-5.4-1.6-8.2c-0.1-3.1,0.6-6.2,1.8-9
	c1.2-2.6,2.9-4.9,5.1-6.8c2.3-1.9,5-3.3,7.8-4.2c3.3-1,6.7-1.5,10.1-1.4c2.5,0,5,0.2,7.5,0.5c2,0.3,4,0.7,6,1.2v-2.5
	c0-1.4-0.2-2.9-0.7-4.2c-0.5-1.4-1.3-2.6-2.4-3.6c-1.2-1.1-2.7-2-4.3-2.5c-2.1-0.7-4.2-1-6.4-0.9c-3.1,0-6.2,0.3-9.2,1
	c-3.4,0.8-6.7,1.8-10,3.1V175c3.2-1.4,6.5-2.4,9.9-3.1c3.6-0.7,7.3-1.1,11-1.1c4-0.1,8.1,0.5,12,1.7c3.1,1,6,2.5,8.5,4.6
	c2.2,1.9,4,4.2,5.1,6.9c1.2,2.7,1.7,5.7,1.7,8.7V216c0,4.1,0,7.6,0.1,10.6s0.2,5.6,0.3,7.9H174L173.4,227.8z M172.2,207.9
	c-1.5-0.4-3.1-0.7-5-0.9c-1.9-0.3-3.8-0.4-5.7-0.4c-3.7,0-6.7,0.7-8.8,2.2c-2.2,1.5-3.4,4.1-3.2,6.8c0,1.3,0.2,2.5,0.7,3.7
	c0.5,1,1.1,1.9,2,2.6c0.9,0.7,1.9,1.2,2.9,1.5c1.1,0.3,2.3,0.5,3.5,0.5c1.5,0,3-0.2,4.4-0.6c1.3-0.4,2.6-0.9,3.8-1.5
	c1.1-0.6,2.1-1.3,3.1-2.1c0.8-0.7,1.6-1.4,2.4-2.2L172.2,207.9z"/>
<path class="st0" d="M329.6,201.2c-1.4,0-2.8,0-4.2-0.1s-2.6-0.1-3.9-0.3v33.6h-15.7v-85.9h24.8c3.6,0,7.3,0.2,10.9,0.5
	c2.8,0.3,5.6,0.9,8.3,1.6c5.9,1.8,10.4,4.7,13.6,8.6c3.2,3.9,4.8,8.9,4.8,15c0.1,3.9-0.8,7.7-2.6,11.2c-1.8,3.4-4.4,6.3-7.5,8.5
	c-3.7,2.5-7.8,4.3-12.1,5.4C340.7,200.6,335.2,201.2,329.6,201.2z M321.6,187.6c0.9,0.1,2,0.2,3.4,0.3s2.8,0.1,4.3,0.1
	c3.6,0.1,7.2-0.3,10.7-1c2.5-0.5,4.8-1.5,6.9-2.9c1.7-1.1,3-2.6,3.8-4.4c0.8-1.8,1.2-3.7,1.2-5.7c0.1-2.3-0.5-4.6-1.7-6.5
	c-1.1-1.9-3.2-3.3-6-4.3c-1.8-0.6-3.7-1-5.6-1.1c-2.7-0.3-5.4-0.4-8.1-0.4h-8.9L321.6,187.6z"/>
<path class="st0" d="M403.3,223.8c3.1,0,6.2-0.3,9.3-0.9c3.3-0.6,6.6-1.5,9.8-2.6v12.1c-2.9,1.1-5.9,1.9-9,2.4
	c-4.2,0.8-8.4,1.2-12.7,1.1c-4.2,0-8.5-0.5-12.6-1.7c-3.8-1.1-7.4-2.9-10.4-5.5c-3.1-2.7-5.5-6.1-7-9.8c-1.8-4.7-2.7-9.6-2.6-14.6
	c-0.1-5.1,0.7-10.1,2.4-14.8c1.4-3.9,3.6-7.5,6.5-10.6c2.7-2.7,5.9-4.9,9.4-6.3c3.5-1.4,7.2-2.1,11-2.1c3.7,0,7.4,0.6,10.9,1.8
	c3.3,1.2,6.2,3.1,8.6,5.6c2.6,2.9,4.5,6.2,5.7,9.9c1.4,4.6,2.1,9.5,2,14.4c0,2.1-0.1,4-0.2,5.5h-40.8c0.1,2.6,0.8,5.1,1.9,7.4
	c1,1.9,2.4,3.6,4.2,4.9c1.8,1.3,3.9,2.2,6.1,2.8C398.2,223.5,400.8,223.8,403.3,223.8z M397.2,182.6c-3.4-0.1-6.7,1.4-9,4
	c-1.1,1.3-2,2.7-2.6,4.3c-0.7,1.7-1.1,3.4-1.3,5.2h24.5c0-1.8-0.3-3.5-0.8-5.2c-0.5-1.5-1.2-3-2.2-4.3c-1-1.2-2.2-2.2-3.6-2.9
	C400.7,182.9,398.9,182.5,397.2,182.6L397.2,182.6z"/>
<path class="st0" d="M469.4,227.8h-0.2c-2.1,2.2-4.5,4-7.2,5.4c-1.6,0.9-3.4,1.5-5.1,2c-2,0.5-4,0.8-6.1,0.8c-2.8,0-5.6-0.4-8.3-1.4
	c-2.5-0.9-4.7-2.2-6.6-4c-1.9-1.8-3.3-3.9-4.3-6.3c-1.1-2.6-1.6-5.4-1.6-8.2c-0.1-3.1,0.6-6.2,1.8-9c1.2-2.6,2.9-4.9,5.1-6.8
	c2.3-1.9,5-3.3,7.8-4.2c3.3-1,6.7-1.5,10.1-1.4c2.5,0,5,0.2,7.5,0.5c2,0.3,4,0.7,6,1.2v-2.5c0-1.4-0.2-2.9-0.7-4.2
	c-0.5-1.4-1.3-2.6-2.4-3.6c-1.2-1.1-2.7-2-4.3-2.5c-2.1-0.7-4.2-1-6.4-0.9c-3.1,0-6.2,0.3-9.2,1c-3.4,0.8-6.7,1.8-10,3.1V175
	c3.2-1.4,6.5-2.4,9.9-3.1c3.6-0.7,7.3-1.1,11-1.1c4-0.1,8.1,0.5,12,1.7c3.1,1,6,2.5,8.5,4.6c2.2,1.9,4,4.2,5.1,6.9
	c1.2,2.7,1.7,5.7,1.7,8.7V216c0,4.1,0,7.6,0.1,10.6c0.1,3,0.2,5.6,0.2,7.9H470L469.4,227.8z M468.2,207.9c-1.5-0.4-3.1-0.7-5-0.9
	c-1.9-0.3-3.8-0.4-5.7-0.4c-3.7,0-6.7,0.7-8.8,2.2c-2.2,1.5-3.4,4.1-3.2,6.8c0,1.3,0.2,2.5,0.7,3.7c0.5,1,1.1,1.9,2,2.6
	c0.9,0.7,1.9,1.2,2.9,1.5c1.1,0.3,2.3,0.5,3.5,0.5c1.5,0,2.9-0.2,4.4-0.6c1.3-0.4,2.6-0.9,3.8-1.5c1.1-0.6,2.2-1.3,3.1-2.1
	c0.8-0.7,1.6-1.4,2.3-2.2L468.2,207.9z"/>
<path class="st0" d="M84.8,171.4c0,3.6-0.8,7.1-2.5,10.2c-1.9,3.4-4.8,6.1-8.3,7.7v0.3c2.1,0.7,4,1.6,5.9,2.8c1.7,1.1,3.3,2.5,4.6,4
	c1.3,1.6,2.3,3.4,3,5.3c0.7,2.1,1.1,4.4,1.1,6.6c0,2.3-0.4,4.5-1,6.7c-0.7,2.5-1.9,4.9-3.5,7c-1.9,2.4-4.1,4.5-6.7,6.2
	c-3.2,2.1-6.8,3.6-10.5,4.5c-1.1,0.2-2.2,0.5-3.5,0.7s-2.7,0.4-4.2,0.5s-3.3,0.3-5.1,0.3s-4,0.1-6.4,0.1h-25v-86h29.9
	c6.4,0,11.5,0.6,15.4,1.9c2.7,0.8,5.3,2.1,7.6,3.7c2,1.4,3.8,3.1,5.3,5.1c1.4,1.8,2.4,3.8,3.1,5.9C84.5,167.1,84.8,169.2,84.8,171.4
	z M52.5,183.9c4.3,0,7.5-0.4,9.6-1.3c2.1-0.8,3.8-2.2,5-4.1c1-1.8,1.5-3.8,1.5-5.9c0-2.2-0.6-4.3-1.7-6.1c-1.4-2-3.5-3.4-5.9-4
	c-1.3-0.4-2.6-0.6-4-0.7c-1.6-0.1-3.4-0.2-5.7-0.2H38.3v22.2H52.5z M38.3,197.1v24.2h10.3c2.8,0,5.1-0.1,7.1-0.2
	c1.7-0.1,3.4-0.4,5.1-0.7c1.9-0.4,3.7-1,5.5-1.9c1.3-0.7,2.5-1.6,3.5-2.7c0.9-1,1.5-2.1,1.9-3.3c0.4-1.3,0.6-2.6,0.6-3.9
	c0-2.3-0.7-4.5-2-6.3c-1.6-2-3.8-3.4-6.2-4c-1.4-0.4-2.9-0.7-4.4-0.8c-1.7-0.2-3.8-0.3-6.4-0.3L38.3,197.1z"/>
<path class="st0" d="M495.2,141.4h15.2v56h0.3l23.7-25.2h18.8L526,201.4l27.5,33H535l-24.4-29h-0.3v29h-15.2V141.4z"/>
<path class="st0" d="M248,281.2l-5.7-8.1l-5.4-7.8c12.2-8.7,39.9-34.9,39.9-56.1c0-2.5-0.5-4.3-1.3-5c-2.1-1.9-5.5-1.8-10.9-1
	c-9,1.2-18.4,2.5-24.8-3.1c-3.7-3.2-5.6-8.1-5.6-14.5c0-32.4,54.9-60.1,54.9-60.1s-37.5,36.9-37.5,57.7c0,6.3,5.8,7.7,11,7.5
	c7-0.4,14.1-2.2,20.9,0.6c1.6,0.6,3,1.5,4.3,2.6c3.7,3.2,5.6,8.1,5.6,14.5C293.4,240.3,250,279.8,248,281.2z"/>
<path class="st0" d="M197.9,282.4l-6.2-9.1c12.2-8.9,43.2-27.5,43.2-49.4c0-2.7-0.5-4.6-1.4-5.4c-2.2-1.9-5.9-1-11.3-0.3
	c-8.6,1.2-16.4,0.8-22.9-4.9c-3.8-3.3-5.7-8.2-5.7-14.8c0-33.1,59.2-62.6,59.2-62.6s-42.5,33.1-42.5,58.9c0,6.2,6.1,9.9,12,9
	c8.6-1.2,18.3-2.6,24.8,3.1c3.8,3.3,5.7,8.3,5.7,14.9c0,32.8-47.2,67.4-49.2,68.9L197.9,282.4z"/>
<path class="st0" d="M560.1,132.4v118.2H285.3c0.7-0.9,1.2-1.8,1.9-2.7h270.1V135.1H362l-1.8-2.7L560.1,132.4z"/>
<path class="st0" d="M18.7,135.1v112.7h193.6c-1,0.9-2.1,1.8-3.1,2.7H16V132.4h199.8l-1.8,2.7H18.7z"/>
<path class="st0" d="M248,281.2c0,0-9.8,7.9-16.9,0s5.8-16,5.8-16c12.2-8.7,39.9-34.9,39.9-56.1c0-2.5-0.5-4.3-1.3-5
	c-2.1-1.9-5.5-1.8-10.9-1c-9,1.2-18.4,2.5-24.8-3.1c-3.7-3.2-5.6-8.1-5.6-14.5c0-32.4,54.9-60.1,54.9-60.1s-37.5,36.9-37.5,57.7
	c0,6.3,5.8,7.7,11,7.5c7-0.4,14.1-2.2,20.9,0.6c1.6,0.6,3,1.5,4.3,2.6c3.7,3.2,5.6,8.1,5.6,14.5C293.4,240.3,250,279.8,248,281.2z"
	/>
<path class="st0" d="M184.7,290.4c-7.5-9.2,7-17.1,7-17.1c12.2-8.9,43.2-27.5,43.2-49.4c0-2.7-0.5-4.6-1.4-5.4
	c-2.2-1.9-5.9-1-11.3-0.3c-8.6,1.2-16.4,0.8-22.9-4.9c-3.8-3.3-5.7-8.2-5.7-14.8c0-33.1,59.2-62.6,59.2-62.6s-42.5,33.1-42.5,58.9
	c0,6.2,6.1,9.9,12,9c8.6-1.2,18.3-2.6,24.8,3.1c3.8,3.3,5.7,8.3,5.7,14.9c0,32.8-47.2,67.4-49.2,68.9
	C203.7,290.8,192.3,299.6,184.7,290.4z"/>
<line class="st1" x1="173.2" y1="127.4" x2="173.2" y2="127.4"/>
<line class="st1" x1="179.5" y1="116.4" x2="179.5" y2="116.4"/>
<line class="st1" x1="402.9" y1="127.4" x2="402.9" y2="127.4"/>
<polygon class="st2" points="342.9,121.9 288,36.7 233.1,121.9 267.1,97.5 288,107.5 309,97.5 "/>
<g class="st3">
	<path class="st0" d="M562.9,110.6v-7.1h-2.5V102h6.8v1.5h-2.5v7.1H562.9z"/>
	<path class="st0" d="M568.3,110.6V102h2.6l1.6,5.9l1.5-5.9h2.6v8.6H575v-6.8l-1.7,6.8h-1.7l-1.7-6.8v6.8H568.3z"/>
</g>
</svg>
